<svg width="37" height="36" viewBox="0 0 37 36" fill="none" xmlns="http://www.w3.org/2000/svg">
<path d="M15.6507 7.28366L4.35736 26.137C4.12452 26.5402 4.00131 26.9974 4.00001 27.463C3.99871 27.9286 4.11935 28.3865 4.34993 28.791C4.58051 29.1956 4.91299 29.5327 5.3143 29.7688C5.71561 30.0049 6.17176 30.1319 6.63736 30.137H29.224C29.6896 30.1319 30.1458 30.0049 30.5471 29.7688C30.9484 29.5327 31.2809 29.1956 31.5115 28.791C31.742 28.3865 31.8627 27.9286 31.8614 27.463C31.8601 26.9974 31.7369 26.5402 31.504 26.137L20.2107 7.28366C19.973 6.8918 19.6383 6.56782 19.239 6.34297C18.8396 6.11812 18.389 6 17.9307 6C17.4724 6 17.0218 6.11812 16.6224 6.34297C16.2231 6.56782 15.8884 6.8918 15.6507 7.28366Z" stroke="#242424" stroke-linecap="round" stroke-linejoin="round"/>
<path d="M17.9297 14.1367V19.4701" stroke="#242424" stroke-linecap="round" stroke-linejoin="round"/>
<path d="M17.9297 24.8047H17.943" stroke="#242424" stroke-linecap="round" stroke-linejoin="round"/>
</svg>
