<svg width="37" height="36" viewBox="0 0 37 36" fill="none" xmlns="http://www.w3.org/2000/svg">
<path d="M18.3333 31.6667C25.6971 31.6667 31.6667 25.6971 31.6667 18.3333C31.6667 10.9695 25.6971 5 18.3333 5C10.9695 5 5 10.9695 5 18.3333C5 25.6971 10.9695 31.6667 18.3333 31.6667Z" stroke="#242424" stroke-linecap="round" stroke-linejoin="round"/>
<path d="M18.332 26.332C22.7503 26.332 26.332 22.7503 26.332 18.332C26.332 13.9138 22.7503 10.332 18.332 10.332C13.9138 10.332 10.332 13.9138 10.332 18.332C10.332 22.7503 13.9138 26.332 18.332 26.332Z" stroke="#242424" stroke-linecap="round" stroke-linejoin="round"/>
<path d="M18.3307 20.9974C19.8035 20.9974 20.9974 19.8035 20.9974 18.3307C20.9974 16.858 19.8035 15.6641 18.3307 15.6641C16.858 15.6641 15.6641 16.858 15.6641 18.3307C15.6641 19.8035 16.858 20.9974 18.3307 20.9974Z" stroke="#242424" stroke-linecap="round" stroke-linejoin="round"/>
</svg>
