<svg width="37" height="36" viewBox="0 0 37 36" fill="none" xmlns="http://www.w3.org/2000/svg">
<path d="M22.9568 28.2423H13.5396C13.5359 28.2423 13.5322 28.2422 13.5285 28.2422M22.9568 28.2423C23.1415 28.2423 23.2892 28.1682 23.4 28.0572C23.5108 27.9461 23.5847 27.761 23.5847 27.5758C23.5847 27.5388 23.4 24.0583 25.0249 22.4292L25.1357 22.3181C27.2777 20.3557 28.5333 17.5788 28.5333 14.6907C28.5333 9.02574 23.917 4 18.2667 4C12.6163 4 8 9.02574 8 14.6907C8 17.6528 9.29257 20.5038 11.4715 22.4292C13.0964 24.0583 12.9487 27.5388 12.9118 27.5758C12.9118 27.761 12.9487 27.9091 13.0964 28.0572C13.2044 28.1655 13.3827 28.2386 13.5285 28.2422M22.9568 28.2423V30.5057C22.9568 31.324 22.2628 32 21.4226 32H15.0627C14.2225 32 13.5285 31.324 13.5285 30.5057V28.2422" stroke="#242424"/>
</svg>
