<svg width="37" height="36" viewBox="0 0 37 36" fill="none" xmlns="http://www.w3.org/2000/svg">
<path d="M31.9632 8.7528L20.2967 3.43351C19.0321 2.8555 16.9622 2.8555 15.6976 3.43351L4.03886 8.7528C2.66413 9.37768 2.66413 10.4001 4.03886 11.025L15.5991 16.2974C16.9184 16.8989 19.0899 16.8989 20.4092 16.2974L31.9694 11.025C33.3379 10.4001 33.3379 9.3769 31.9632 8.7528Z" stroke="#242424" stroke-linecap="round" stroke-linejoin="round"/>
<path d="M10.4986 22.0994L4.03886 24.998C2.66413 25.6229 2.66413 26.6462 4.03886 27.271L15.5991 32.5435C16.9184 33.1441 19.0899 33.1441 20.4092 32.5435L31.9694 27.271C33.3442 26.6462 33.3442 25.6229 31.9694 24.998L25.7253 21.9932" stroke="#242424" stroke-linecap="round" stroke-linejoin="round"/>
<path d="M10.4986 13.9717L4.03105 16.8742C2.65632 17.4991 2.65632 18.5224 4.03105 19.1472L15.5913 24.4189C16.9106 25.0203 19.0821 25.0203 20.4013 24.4189L31.9616 19.1472C33.3442 18.5224 33.3442 17.4991 31.9694 16.8742L25.4957 13.9717" stroke="#242424" stroke-linecap="round" stroke-linejoin="round"/>
</svg>
