<svg width="37" height="36" viewBox="0 0 37 36" fill="none" xmlns="http://www.w3.org/2000/svg">
<path d="M27.5726 11.7812C27.378 14.482 25.3745 16.5625 23.1898 16.5625C21.005 16.5625 18.9982 14.4827 18.807 11.7812C18.6077 8.9716 20.5581 7 23.1898 7C25.8214 7 27.7718 9.02273 27.5726 11.7812Z" stroke="#242424" stroke-linecap="round" stroke-linejoin="round"/>
<path d="M23.1872 20.8125C18.8595 20.8125 14.6979 22.9621 13.6553 27.1483C13.5172 27.7021 13.8645 28.25 14.4336 28.25H31.9416C32.5107 28.25 32.856 27.7021 32.7199 27.1483C31.6773 22.895 27.5156 20.8125 23.1872 20.8125Z" stroke="#242424" stroke-miterlimit="10"/>
<path d="M14.1575 12.9726C14.0021 15.1295 12.3831 16.8281 10.638 16.8281C8.8928 16.8281 7.27117 15.1301 7.11843 12.9726C6.95972 10.7287 8.53554 9.125 10.638 9.125C12.7404 9.125 14.3162 10.7699 14.1575 12.9726Z" stroke="#242424" stroke-linecap="round" stroke-linejoin="round"/>
<path d="M14.5553 20.9459C13.3567 20.3967 12.0365 20.1855 10.6374 20.1855C7.18424 20.1855 3.85729 21.9021 3.02389 25.2457C2.91432 25.688 3.1919 26.1256 3.64612 26.1256H11.1022" stroke="#242424" stroke-miterlimit="10" stroke-linecap="round"/>
</svg>
