<svg width="37" height="36" viewBox="0 0 37 36" fill="none" xmlns="http://www.w3.org/2000/svg">
<path d="M28.4 6H7.6C6.16406 6 5 7.16406 5 8.6V13.8C5 15.2359 6.16406 16.4 7.6 16.4H28.4C29.8359 16.4 31 15.2359 31 13.8V8.6C31 7.16406 29.8359 6 28.4 6Z" stroke="#242424" stroke-linecap="round" stroke-linejoin="round"/>
<path d="M28.4 19H7.6C6.16406 19 5 20.1641 5 21.6V26.8C5 28.2359 6.16406 29.4 7.6 29.4H28.4C29.8359 29.4 31 28.2359 31 26.8V21.6C31 20.1641 29.8359 19 28.4 19Z" stroke="#242424" stroke-linecap="round" stroke-linejoin="round"/>
<path d="M10.1992 11.2002H10.2122" stroke="#242424" stroke-linecap="round" stroke-linejoin="round"/>
<path d="M10.1992 24.2002H10.2122" stroke="#242424" stroke-linecap="round" stroke-linejoin="round"/>
</svg>
